<?xml version="1.0" encoding="utf-8"?>
<!-- Generator: Adobe Illustrator 23.0.0, SVG Export Plug-In . SVG Version: 6.00 Build 0)  -->
<svg version="1.1" id="Layer_1" xmlns="http://www.w3.org/2000/svg" xmlns:xlink="http://www.w3.org/1999/xlink" x="0px" y="0px"
	 viewBox="0 0 128 128" style="enable-background:new 0 0 128 128;" xml:space="preserve">
<style type="text/css">
	.st0{fill:#46A6D5;}
	.st1{fill:#FFFFFF;}
	.st2{fill:#894C9E;}
	.st3{fill:url(#SVGID_1_);}
</style>
<g>
	<g>
		<path class="st0" d="M62.1,83.4l-1,14.1c1.4,0,2.1-0.6,2.8-1.4l6.7-6.4l13.9,10.2c2.6,1.4,4.4,0.7,5-2.3l9.1-42.8l0,0
			c0.8-3.8-1.4-5.3-3.9-4.3L41.1,71c-3.7,1.4-3.6,3.5-0.6,4.4l13.7,4.3l31.9-20c1.5-1,2.9-0.4,1.7,0.6L62.1,83.4z"/>
		<rect x="29.1" y="37.6" class="st1" width="58.7" height="24.8"/>
		<g>
			<path class="st2" d="M33.1,34.2c17.1,0,34.2,0,51.3,0c0.3,0,0.5,0.1,0.8,0.1c2.4,0.3,4.3,2.2,4.8,4.5c0.1,0.3,0.1,0.7,0.2,1
				c0,6.6,0,13.2,0,19.8c0,0.1-0.1,0.2-0.1,0.3c0,0.7-0.2,1.3-0.5,1.9c-1.1,2.3-2.9,3.5-5.4,3.5c-5.9,0-11.9,0-17.8,0
				c-0.1,0-0.2,0-0.4,0c0.8,2,1.6,4,2.5,6.1c-0.1-0.1-0.2-0.1-0.2-0.1c-3.5-1.9-7-3.9-10.4-5.8c-0.2-0.1-0.4-0.2-0.6-0.2
				c-8,0-16,0-23.9,0c-0.9,0-1.7-0.2-2.5-0.6c-2.1-1.1-3.2-3-3.2-5.4c0-6.4,0-12.7,0-19.1c0-0.4,0-0.8,0.1-1.2
				c0.3-2.4,2.2-4.3,4.5-4.7C32.5,34.3,32.8,34.3,33.1,34.2z M49.5,52.6c-0.1-0.1-0.1-0.2-0.1-0.3c-1-2.6-1.6-5.2-2.2-7.9
				c-0.1-0.6-0.2-1.1-0.5-1.6c-0.6-1-1.7-1.1-2.5-0.7c-0.6,0.3-0.9,0.8-1.2,1.4c-1.8,3.4-3.6,6.8-5.4,10.2c0,0.1-0.1,0.1-0.1,0.2
				c0-0.1-0.1-0.2-0.1-0.3c-0.5-2.6-1.1-5.2-1.6-7.9c-0.3-1.8-0.6-3.5-0.9-5.3c-0.2-1.2-0.9-1.9-2.1-1.8c-1.5,0.1-2.4,1.1-2.2,2.6
				c0.2,1.6,0.5,3.2,0.8,4.7c0.6,3,1.1,5.9,1.8,8.9c0.4,1.9,0.9,3.8,1.6,5.7c0.2,0.5,0.4,1,0.8,1.4c0.4,0.4,0.9,0.5,1.5,0.3
				c0.5-0.2,0.9-0.6,1.2-1c1-1.1,1.7-2.4,2.3-3.6c1.1-2.2,2.2-4.5,3.4-6.7c0-0.1,0.1-0.1,0.1-0.2c0.3,0.9,0.6,1.8,0.9,2.7
				c0.9,2.5,2,4.8,3.7,6.9c0.5,0.6,1,1.3,1.7,1.7c0.5,0.3,1,0.5,1.6,0.3c0.8-0.2,1.1-0.8,1.3-1.5c0.1-0.5,0.1-1,0.1-1.5
				c0-1.4,0-2.9,0.1-4.3c0.1-1.1,0.2-2.2,0.4-3.3c0.2-1.6,0.5-3.3,0.8-4.9c0.4-2.1,0.9-4.2,1.9-6.1c0.2-0.5,0.3-1,0.1-1.5
				c-0.2-0.9-1-1.5-2-1.6c-0.8-0.1-1.6,0.2-2.1,1.2c-0.7,1.3-1.2,2.7-1.6,4.1C50.3,46,49.8,49.3,49.5,52.6z M56.4,51.7
				c0,0.5,0.1,1.4,0.3,2.2c0.3,1.4,0.8,2.6,1.8,3.7c1.8,1.9,4,2.4,6.5,1.7c1.6-0.4,2.7-1.4,3.6-2.7c2-2.8,2.8-6,2.5-9.4
				c-0.1-1.1-0.4-2.1-0.8-3.1c-1.5-3.3-4.9-4.2-7.6-3.4c-1.6,0.5-2.7,1.5-3.6,2.8C57.2,45.8,56.4,48.4,56.4,51.7z M87.1,48.5
				c0-0.4,0-0.9-0.1-1.3c-0.1-1.3-0.5-2.5-1.1-3.6c-1.8-3.4-6.2-4.1-8.9-2.3c-1.2,0.8-2,1.8-2.7,3c-1.5,2.6-2.1,5.4-1.9,8.3
				c0.1,1.1,0.4,2.2,0.8,3.2c1.4,3.2,4.7,4.3,7.5,3.5c1.7-0.4,2.9-1.5,3.8-2.9C86.3,54.1,87.1,51.4,87.1,48.5z"/>
			<path class="st2" d="M64.5,44.7c0.5,0,1,0.2,1.3,0.7c0.5,0.7,0.8,1.5,0.9,2.3c0.3,2.1-0.1,4-1.3,5.8c-0.4,0.6-0.8,1-1.4,1.3
				c-0.3,0.1-0.5,0.3-0.8,0.3c-0.7,0.1-1.2-0.2-1.5-0.8c-0.5-0.7-0.7-1.5-0.8-2.4c-0.3-2.3,0.4-4.3,1.8-6.1c0.4-0.5,0.9-0.9,1.5-1.1
				C64.2,44.8,64.4,44.7,64.5,44.7z"/>
			<path class="st2" d="M82.8,48.6c0,1.7-0.4,3.2-1.2,4.5c-0.4,0.7-1,1.3-1.7,1.7c-1,0.6-1.8,0.4-2.4-0.6c-0.5-0.7-0.7-1.6-0.8-2.4
				c-0.2-2.2,0.5-4.2,1.9-6c0.3-0.3,0.6-0.6,1-0.9c0.7-0.4,1.7-0.3,2.2,0.5c0.5,0.7,0.7,1.4,0.9,2.2C82.7,48.1,82.7,48.4,82.8,48.6z
				"/>
		</g>
	</g>
	<g>
		<linearGradient id="SVGID_1_" gradientUnits="userSpaceOnUse" x1="3.2436" y1="76.3901" x2="124.7564" y2="51.6099">
			<stop  offset="0" style="stop-color:#894C9E"/>
			<stop  offset="0.1876" style="stop-color:#8256A4"/>
			<stop  offset="0.506" style="stop-color:#6E71B4"/>
			<stop  offset="0.9142" style="stop-color:#4D9CCF"/>
			<stop  offset="1" style="stop-color:#46A6D5"/>
		</linearGradient>
		<path class="st3" d="M64,126C29.8,126,2,98.2,2,64S29.8,2,64,2s62,27.8,62,62S98.2,126,64,126z M64,6C32,6,6,32,6,64s26,58,58,58
			s58-26,58-58S96,6,64,6z"/>
	</g>
</g>
</svg>
